<svg width="204" height="25" viewBox="0 0 204 25" fill="none" xmlns="http://www.w3.org/2000/svg">
<path d="M55.4623 5.21895C55.7559 5.23518 56.0475 5.2769 56.3341 5.34365L56.9015 5.45963V2.74761L56.5997 2.67087C56.0767 2.54399 55.5424 2.47095 55.005 2.45286C53.5383 2.45286 52.4018 2.83481 51.628 3.5865C50.8543 4.3382 50.6377 5.51806 50.5895 7.03627H48.5262V10.6116H50.5826V18.97H54.1074V10.6116H56.8997V7.03627H54.1117C54.1556 5.34365 54.6576 5.21895 55.4623 5.21895Z" fill="#BDBDBD"/>
<path d="M66.5664 6.41189C65.1518 6.42732 63.8008 7.01016 62.8086 8.033V6.41189H59.2769V18.9692H62.8086V12.2022C62.8086 10.8601 64.3028 9.70992 65.5261 9.70992C66.3635 9.70992 67.5533 9.90613 67.5533 12.2554V18.97H71.0781V11.781C71.0789 8.33647 69.4765 6.41189 66.5664 6.41189Z" fill="#BDBDBD"/>
<path d="M96.3703 6.41974C95.3961 6.41875 94.4394 6.68221 93.5995 7.18277C93.2267 7.40484 92.8837 7.67478 92.579 7.98591V6.41189H89.0542V18.9692H92.579V12.3243C92.5769 12.0165 92.6457 11.7124 92.7801 11.4364C92.9144 11.1603 93.1105 10.92 93.3528 10.7346C94.0844 10.1494 95.2037 9.94973 96.2757 10.2113L96.7727 10.3326V6.41974H96.3703Z" fill="#BDBDBD"/>
<path d="M82.3647 2.46611V7.66255C81.419 6.87772 79.9919 6.42601 78.6826 6.42601C77.9287 6.42091 77.1825 6.58032 76.4947 6.89343C75.8069 7.20654 75.1935 7.66602 74.6961 8.24071C73.6886 9.39354 73.1306 10.9754 73.1306 12.6968C73.1306 14.4182 73.6851 15.9992 74.6927 17.152C75.19 17.7268 75.8034 18.1864 76.4912 18.4997C77.179 18.813 77.9252 18.9725 78.6791 18.9676C80.0353 18.9735 81.3462 18.4724 82.3612 17.5601V18.9702H85.886V2.46611H82.3647ZM82.3088 12.6968C82.3088 13.6848 82.0303 14.5176 81.5015 15.1045C81.2563 15.3678 80.9606 15.5775 80.6327 15.7209C80.3047 15.8643 79.9514 15.9382 79.5943 15.9382C79.2372 15.9382 78.8838 15.8643 78.5559 15.7209C78.2279 15.5775 77.9323 15.3678 77.687 15.1045C77.1592 14.5176 76.8806 13.6848 76.8806 12.6968C76.8806 11.7088 77.1592 10.8751 77.687 10.2891C77.9321 10.0256 78.2278 9.81563 78.5557 9.67213C78.8837 9.52863 79.2371 9.4546 79.5943 9.4546C79.9515 9.4546 80.3049 9.52863 80.6328 9.67213C80.9608 9.81563 81.2564 10.0256 81.5015 10.2891C82.0303 10.8751 82.3088 11.7097 82.3088 12.6968V12.6968Z" fill="#BDBDBD"/>
<path d="M42.9046 2.4664V7.66285C41.9589 6.87802 40.5318 6.42631 39.2225 6.42631C38.4686 6.42121 37.7224 6.58062 37.0346 6.89373C36.3468 7.20683 35.7334 7.66631 35.2361 8.24101C34.2285 9.39384 33.6705 10.9757 33.6705 12.6971C33.6705 14.4185 34.225 15.9995 35.2326 17.1523C35.7299 17.7271 36.3433 18.1867 37.0311 18.5C37.7189 18.8132 38.4651 18.9728 39.2191 18.9679C40.5753 18.9738 41.8861 18.4727 42.9012 17.5604V18.9705H46.4259V2.4664H42.9046ZM42.8487 12.6971C42.8487 13.6851 42.5702 14.5179 42.0415 15.1048C41.7962 15.3681 41.5006 15.5778 41.1726 15.7212C40.8447 15.8646 40.4913 15.9385 40.1342 15.9385C39.7771 15.9385 39.4238 15.8646 39.0958 15.7212C38.7679 15.5778 38.4722 15.3681 38.227 15.1048C37.6991 14.5179 37.4206 13.6851 37.4206 12.6971C37.4206 11.7091 37.6991 10.8754 38.227 10.2894C38.4721 10.0259 38.7677 9.81593 39.0956 9.67242C39.4236 9.52892 39.777 9.4549 40.1342 9.4549C40.4914 9.4549 40.8448 9.52892 41.1728 9.67242C41.5007 9.81593 41.7963 10.0259 42.0415 10.2894C42.5702 10.8754 42.8487 11.71 42.8487 12.6971V12.6971Z" fill="#BDBDBD"/>
<path d="M115.588 7.27545C117.055 7.27545 118.213 7.70079 119.064 8.55145C119.929 9.40212 120.362 10.6635 120.362 12.3355V19.0455H118.25V12.5775C118.25 11.4481 117.986 10.5975 117.458 10.0255C116.945 9.45345 116.204 9.16745 115.236 9.16745C114.165 9.16745 113.315 9.50479 112.684 10.1795C112.053 10.8395 111.738 11.7928 111.738 13.0395V19.0455H109.626V12.5775C109.626 11.4481 109.362 10.5975 108.834 10.0255C108.321 9.45345 107.58 9.16745 106.612 9.16745C105.541 9.16745 104.691 9.50479 104.06 10.1795C103.429 10.8395 103.114 11.7928 103.114 13.0395V19.0455H101.002V7.38545H103.026V9.12345C103.451 8.52212 104.009 8.06745 104.698 7.75945C105.387 7.43679 106.172 7.27545 107.052 7.27545C107.961 7.27545 108.768 7.45879 109.472 7.82545C110.176 8.19212 110.719 8.72745 111.1 9.43145C111.54 8.75679 112.149 8.22879 112.926 7.84745C113.718 7.46612 114.605 7.27545 115.588 7.27545ZM127.854 7.27545C129.467 7.27545 130.699 7.67145 131.55 8.46345C132.415 9.25545 132.848 10.4361 132.848 12.0055V19.0455H130.846V17.5055C130.494 18.0481 129.988 18.4661 129.328 18.7595C128.683 19.0381 127.913 19.1775 127.018 19.1775C125.713 19.1775 124.664 18.8621 123.872 18.2315C123.095 17.6008 122.706 16.7721 122.706 15.7455C122.706 14.7188 123.08 13.8975 123.828 13.2815C124.576 12.6508 125.764 12.3355 127.392 12.3355H130.736V11.9175C130.736 11.0081 130.472 10.3115 129.944 9.82745C129.416 9.34345 128.639 9.10145 127.612 9.10145C126.923 9.10145 126.248 9.21879 125.588 9.45345C124.928 9.67345 124.371 9.97412 123.916 10.3555L123.036 8.77145C123.637 8.28745 124.356 7.92079 125.192 7.67145C126.028 7.40745 126.915 7.27545 127.854 7.27545ZM127.37 17.5495C128.177 17.5495 128.873 17.3735 129.46 17.0215C130.047 16.6548 130.472 16.1415 130.736 15.4815V13.8535H127.48C125.691 13.8535 124.796 14.4548 124.796 15.6575C124.796 16.2441 125.023 16.7061 125.478 17.0435C125.933 17.3808 126.563 17.5495 127.37 17.5495ZM142.342 7.27545C143.823 7.27545 144.997 7.70812 145.862 8.57345C146.742 9.42412 147.182 10.6781 147.182 12.3355V19.0455H145.07V12.5775C145.07 11.4481 144.799 10.5975 144.256 10.0255C143.713 9.45345 142.936 9.16745 141.924 9.16745C140.78 9.16745 139.878 9.50479 139.218 10.1795C138.558 10.8395 138.228 11.7928 138.228 13.0395V19.0455H136.116V7.38545H138.14V9.14545C138.565 8.54412 139.137 8.08212 139.856 7.75945C140.589 7.43679 141.418 7.27545 142.342 7.27545ZM154.697 7.27545C156.31 7.27545 157.542 7.67145 158.393 8.46345C159.258 9.25545 159.691 10.4361 159.691 12.0055V19.0455H157.689V17.5055C157.337 18.0481 156.831 18.4661 156.171 18.7595C155.525 19.0381 154.755 19.1775 153.861 19.1775C152.555 19.1775 151.507 18.8621 150.715 18.2315C149.937 17.6008 149.549 16.7721 149.549 15.7455C149.549 14.7188 149.923 13.8975 150.671 13.2815C151.419 12.6508 152.607 12.3355 154.235 12.3355H157.579V11.9175C157.579 11.0081 157.315 10.3115 156.787 9.82745C156.259 9.34345 155.481 9.10145 154.455 9.10145C153.765 9.10145 153.091 9.21879 152.431 9.45345C151.771 9.67345 151.213 9.97412 150.759 10.3555L149.879 8.77145C150.48 8.28745 151.199 7.92079 152.035 7.67145C152.871 7.40745 153.758 7.27545 154.697 7.27545ZM154.213 17.5495C155.019 17.5495 155.716 17.3735 156.303 17.0215C156.889 16.6548 157.315 16.1415 157.579 15.4815V13.8535H154.323C152.533 13.8535 151.639 14.4548 151.639 15.6575C151.639 16.2441 151.866 16.7061 152.321 17.0435C152.775 17.3808 153.406 17.5495 154.213 17.5495ZM174.177 7.38545V17.4615C174.177 19.5001 173.671 21.0035 172.659 21.9715C171.647 22.9541 170.137 23.4455 168.127 23.4455C167.027 23.4455 165.979 23.2915 164.981 22.9835C163.984 22.6901 163.177 22.2648 162.561 21.7075L163.573 20.0795C164.116 20.5488 164.783 20.9155 165.575 21.1795C166.382 21.4581 167.211 21.5975 168.061 21.5975C169.425 21.5975 170.43 21.2748 171.075 20.6295C171.735 19.9841 172.065 19.0015 172.065 17.6815V16.7575C171.567 17.3588 170.951 17.8135 170.217 18.1215C169.499 18.4148 168.714 18.5615 167.863 18.5615C166.749 18.5615 165.737 18.3268 164.827 17.8575C163.933 17.3735 163.229 16.7061 162.715 15.8555C162.202 14.9901 161.945 14.0075 161.945 12.9075C161.945 11.8075 162.202 10.8321 162.715 9.98145C163.229 9.11612 163.933 8.44879 164.827 7.97945C165.737 7.51012 166.749 7.27545 167.863 7.27545C168.743 7.27545 169.557 7.43679 170.305 7.75945C171.068 8.08212 171.691 8.55879 172.175 9.18945V7.38545H174.177ZM168.105 16.7135C168.868 16.7135 169.55 16.5521 170.151 16.2295C170.767 15.9068 171.244 15.4595 171.581 14.8875C171.933 14.3008 172.109 13.6408 172.109 12.9075C172.109 11.7781 171.735 10.8688 170.987 10.1795C170.239 9.47545 169.279 9.12345 168.105 9.12345C166.917 9.12345 165.949 9.47545 165.201 10.1795C164.453 10.8688 164.079 11.7781 164.079 12.9075C164.079 13.6408 164.248 14.3008 164.585 14.8875C164.937 15.4595 165.414 15.9068 166.015 16.2295C166.631 16.5521 167.328 16.7135 168.105 16.7135ZM188.11 13.2815C188.11 13.4428 188.096 13.6555 188.066 13.9195H178.606C178.738 14.9461 179.186 15.7748 179.948 16.4055C180.726 17.0215 181.686 17.3295 182.83 17.3295C184.224 17.3295 185.346 16.8601 186.196 15.9215L187.362 17.2855C186.834 17.9015 186.174 18.3708 185.382 18.6935C184.605 19.0161 183.732 19.1775 182.764 19.1775C181.532 19.1775 180.44 18.9281 179.486 18.4295C178.533 17.9161 177.792 17.2048 177.264 16.2955C176.751 15.3861 176.494 14.3595 176.494 13.2155C176.494 12.0861 176.744 11.0668 177.242 10.1575C177.756 9.24812 178.452 8.54412 179.332 8.04545C180.227 7.53212 181.232 7.27545 182.346 7.27545C183.461 7.27545 184.451 7.53212 185.316 8.04545C186.196 8.54412 186.878 9.24812 187.362 10.1575C187.861 11.0668 188.11 12.1081 188.11 13.2815ZM182.346 9.05745C181.334 9.05745 180.484 9.36545 179.794 9.98145C179.12 10.5975 178.724 11.4041 178.606 12.4015H186.086C185.969 11.4188 185.566 10.6195 184.876 10.0035C184.202 9.37279 183.358 9.05745 182.346 9.05745ZM192.427 9.34345C192.794 8.66879 193.336 8.15545 194.055 7.80345C194.774 7.45145 195.646 7.27545 196.673 7.27545V9.32145C196.556 9.30679 196.394 9.29945 196.189 9.29945C195.045 9.29945 194.143 9.64412 193.483 10.3335C192.838 11.0081 192.515 11.9761 192.515 13.2375V19.0455H190.403V7.38545H192.427V9.34345Z" fill="#919191"/>
<path fill-rule="evenodd" clip-rule="evenodd" d="M5.46992 7.39353L5.11676 7.60912C4.91165 7.44044 4.67679 7.30994 4.4274 7.22608L4.42393 6.81232C4.4235 6.65945 4.31122 6.5337 4.16159 6.51104C3.94669 6.47998 3.72896 6.47394 3.51406 6.49314C3.22932 5.1664 3.06639 3.97231 3 3.00963C3.56578 2.62252 4.14986 2.27918 4.74822 1.97609C4.76945 2.05407 4.82099 2.12267 4.8951 2.16385L5.25392 2.36322C5.20871 2.62898 5.21243 2.89887 5.26466 3.15829L4.91149 3.37388C4.78267 3.45206 4.72684 3.614 4.78041 3.7532C4.8904 4.04183 5.04823 4.31096 5.25104 4.55037C5.34931 4.66546 5.51539 4.69438 5.64543 4.614L5.9986 4.39841C6.2037 4.56709 6.43639 4.69638 6.68795 4.78145L6.69142 5.19521C6.69186 5.34808 6.80413 5.47383 6.95376 5.49649C7.26199 5.54104 7.57606 5.53412 7.87924 5.47507C8.02791 5.44824 8.13376 5.3141 8.1321 5.16342L8.12863 4.74966C8.3765 4.65699 8.60764 4.51759 8.80942 4.33884L9.16823 4.53822C9.29871 4.61072 9.46559 4.57672 9.5607 4.45678C9.75921 4.20709 9.9111 3.92861 10.0143 3.64038C10.0659 3.49627 10.0054 3.33881 9.87497 3.26631L9.51616 3.06694C9.56137 2.80118 9.55765 2.53129 9.50542 2.27187L9.85859 2.05628C9.98741 1.9781 10.0432 1.81616 9.98967 1.67696C9.87967 1.38833 9.72184 1.1192 9.51904 0.879789C9.42076 0.764703 9.25469 0.735782 9.12464 0.816159L8.77148 1.03175C8.59468 0.886352 8.39578 0.769323 8.18453 0.686081C14.9328 -1.07735 22.4537 0.933508 26 2.50963C25.2 14.1096 18 20.6763 14.5 22.5096C9.57487 20.1643 6.58635 15.5272 4.88943 11.1178C4.98231 11.0577 5.07103 10.9903 5.1547 10.9162L5.51351 11.1156C5.64399 11.1881 5.81087 11.1541 5.90598 11.0341C6.10449 10.7845 6.25638 10.506 6.35961 10.2178C6.41123 10.0736 6.35073 9.91618 6.22025 9.84368L5.86144 9.64431C5.90664 9.37856 5.90293 9.10866 5.8507 8.84924L6.20387 8.63365C6.33269 8.55547 6.38851 8.39353 6.33494 8.25433C6.22495 7.9657 6.06712 7.69657 5.86432 7.45716C5.76604 7.34207 5.59997 7.31315 5.46992 7.39353ZM4.43384 9.85033C4.5907 9.65014 4.67505 9.37071 4.62613 9.02991C4.48298 8.69362 4.24766 8.49813 3.99339 8.42204C4.12558 8.89 4.2721 9.36726 4.43384 9.85033ZM8.48781 6.25961L9.01524 7.0365C8.67366 7.45149 8.41077 7.9246 8.23881 8.43383L7.30054 8.39632C7.00877 8.40411 6.77356 8.62765 6.72727 8.91584C6.62491 9.55591 6.72315 10.2498 6.83823 10.8725C6.89033 11.1578 7.14396 11.362 7.43234 11.3552L8.27057 11.3372C8.451 11.832 8.72342 12.2944 9.07683 12.6981L8.666 13.4375C8.52294 13.695 8.58673 14.0155 8.81236 14.1985C9.31431 14.6012 9.87998 14.9098 10.4663 15.1146C10.7387 15.2084 11.0392 15.0874 11.1799 14.8343L11.5919 14.0927C12.1202 14.1818 12.6579 14.1667 13.1734 14.0586L13.6008 14.7799C13.7495 15.0295 14.0548 15.1358 14.3245 15.0294C14.914 14.7982 15.5573 14.5163 16.0467 14.0913C16.2692 13.901 16.3217 13.576 16.173 13.3263L15.6555 12.552C15.9971 12.1371 16.26 11.6639 16.4307 11.1569L17.3603 11.1896C17.652 11.1818 17.8981 10.9643 17.9444 10.6761C18.0455 10.0382 17.9451 9.3431 17.83 8.72045C17.7779 8.43519 17.5243 8.2309 17.2359 8.2377L16.3989 8.25356C16.2185 7.75876 15.9461 7.29635 15.5927 6.89263L16.0035 6.15325C16.1466 5.89579 16.0828 5.57523 15.8571 5.39226C15.3564 4.98731 14.7929 4.67996 14.2066 4.47514C13.9342 4.3814 13.6315 4.50116 13.4896 4.75642L13.0788 5.4958C12.5505 5.40674 12.0128 5.42185 11.4973 5.52999L11.0699 4.80868C10.9212 4.55901 10.616 4.45275 10.3462 4.55918C9.75673 4.79033 9.10473 5.06739 8.61529 5.49238C8.3938 5.6861 8.33909 6.00993 8.48781 6.25961ZM11.8306 7.99319C9.60171 8.97226 10.4384 11.9686 12.8367 11.5963C15.0656 10.6173 14.2289 7.62089 11.8306 7.99319ZM8.27963 2.45474C7.80432 1.33817 6.31289 1.77375 6.48583 2.97861C6.96113 4.09518 8.45257 3.6596 8.27963 2.45474Z" fill="#C4C4C4"/>
</svg>
