<svg width="195" height="27" viewBox="0 0 195 27" fill="none" xmlns="http://www.w3.org/2000/svg">
<path d="M52.4623 7.1735C52.7559 7.18973 53.0475 7.23145 53.3341 7.2982L53.9015 7.41418V4.70216L53.5997 4.62542C53.0767 4.49853 52.5424 4.42549 52.005 4.40741C50.5383 4.40741 49.4018 4.78936 48.6281 5.54105C47.8543 6.29275 47.6377 7.47261 47.5895 8.99082H45.5262V12.5662H47.5827V20.9246H51.1074V12.5662H53.8997V8.99082H51.1117C51.1556 7.2982 51.6576 7.1735 52.4623 7.1735Z" fill="white"/>
<path d="M63.5664 8.36644C62.1518 8.38187 60.8008 8.96471 59.8086 9.98755V8.36644H56.2769V20.9237H59.8086V14.1567C59.8086 12.8147 61.3028 11.6645 62.5261 11.6645C63.3635 11.6645 64.5533 11.8607 64.5533 14.2099V20.9246H68.0781V13.7355C68.0789 10.291 66.4765 8.36644 63.5664 8.36644Z" fill="white"/>
<path d="M93.3703 8.37429C92.3961 8.3733 91.4394 8.63676 90.5995 9.13732C90.2267 9.35939 89.8837 9.62933 89.579 9.94046V8.36644H86.0542V20.9237H89.579V14.2788C89.5769 13.971 89.6457 13.6669 89.7801 13.3909C89.9144 13.1149 90.1105 12.8746 90.3527 12.6891C91.0844 12.104 92.2037 11.9043 93.2757 12.1659L93.7727 12.2871V8.37429H93.3703Z" fill="white"/>
<path d="M79.3647 4.42066V9.6171C78.419 8.83227 76.9919 8.38056 75.6826 8.38056C74.9287 8.37546 74.1825 8.53487 73.4947 8.84798C72.8069 9.16109 72.1935 9.62057 71.6961 10.1953C70.6886 11.3481 70.1306 12.93 70.1306 14.6513C70.1306 16.3727 70.6851 17.9537 71.6927 19.1066C72.19 19.6814 72.8034 20.141 73.4912 20.4542C74.179 20.7675 74.9252 20.9271 75.6791 20.9221C77.0353 20.928 78.3462 20.427 79.3612 19.5147V20.9248H82.886V4.42066H79.3647ZM79.3088 14.6513C79.3088 15.6394 79.0303 16.4722 78.5015 17.059C78.2563 17.3223 77.9606 17.5321 77.6327 17.6754C77.3047 17.8188 76.9514 17.8927 76.5943 17.8927C76.2372 17.8927 75.8838 17.8188 75.5559 17.6754C75.2279 17.5321 74.9323 17.3223 74.687 17.059C74.1592 16.4722 73.8806 15.6394 73.8806 14.6513C73.8806 13.6633 74.1592 12.8297 74.687 12.2437C74.9321 11.9801 75.2278 11.7702 75.5557 11.6267C75.8837 11.4832 76.2371 11.4092 76.5943 11.4092C76.9515 11.4092 77.3049 11.4832 77.6328 11.6267C77.9608 11.7702 78.2564 11.9801 78.5015 12.2437C79.0303 12.8297 79.3088 13.6642 79.3088 14.6513V14.6513Z" fill="white"/>
<path d="M39.9046 4.42095V9.6174C38.9589 8.83257 37.5318 8.38086 36.2225 8.38086C35.4686 8.37576 34.7224 8.53517 34.0346 8.84827C33.3468 9.16138 32.7334 9.62086 32.2361 10.1956C31.2285 11.3484 30.6705 12.9303 30.6705 14.6516C30.6705 16.373 31.225 17.954 32.2326 19.1069C32.7299 19.6817 33.3433 20.1413 34.0311 20.4545C34.7189 20.7678 35.4651 20.9274 36.2191 20.9224C37.5753 20.9283 38.8861 20.4273 39.9012 19.515V20.9251H43.4259V4.42095H39.9046ZM39.8487 14.6516C39.8487 15.6397 39.5702 16.4725 39.0415 17.0593C38.7962 17.3226 38.5006 17.5324 38.1726 17.6757C37.8447 17.8191 37.4913 17.893 37.1342 17.893C36.7771 17.893 36.4238 17.8191 36.0958 17.6757C35.7679 17.5324 35.4722 17.3226 35.227 17.0593C34.6991 16.4725 34.4206 15.6397 34.4206 14.6516C34.4206 13.6636 34.6991 12.83 35.227 12.244C35.4721 11.9804 35.7677 11.7705 36.0956 11.627C36.4236 11.4835 36.777 11.4094 37.1342 11.4094C37.4914 11.4094 37.8448 11.4835 38.1728 11.627C38.5007 11.7705 38.7963 11.9804 39.0415 12.244C39.5702 12.83 39.8487 13.6645 39.8487 14.6516V14.6516Z" fill="white"/>
<path d="M112.588 9.23C114.055 9.23 115.213 9.65533 116.064 10.506C116.929 11.3567 117.362 12.618 117.362 14.29V21H115.25V14.532C115.25 13.4027 114.986 12.552 114.458 11.98C113.945 11.408 113.204 11.122 112.236 11.122C111.165 11.122 110.315 11.4593 109.684 12.134C109.053 12.794 108.738 13.7473 108.738 14.994V21H106.626V14.532C106.626 13.4027 106.362 12.552 105.834 11.98C105.321 11.408 104.58 11.122 103.612 11.122C102.541 11.122 101.691 11.4593 101.06 12.134C100.429 12.794 100.114 13.7473 100.114 14.994V21H98.002V9.34H100.026V11.078C100.451 10.4767 101.009 10.022 101.698 9.714C102.387 9.39133 103.172 9.23 104.052 9.23C104.961 9.23 105.768 9.41333 106.472 9.78C107.176 10.1467 107.719 10.682 108.1 11.386C108.54 10.7113 109.149 10.1833 109.926 9.802C110.718 9.42067 111.605 9.23 112.588 9.23ZM124.854 9.23C126.467 9.23 127.699 9.626 128.55 10.418C129.415 11.21 129.848 12.3907 129.848 13.96V21H127.846V19.46C127.494 20.0027 126.988 20.4207 126.328 20.714C125.683 20.9927 124.913 21.132 124.018 21.132C122.713 21.132 121.664 20.8167 120.872 20.186C120.095 19.5553 119.706 18.7267 119.706 17.7C119.706 16.6733 120.08 15.852 120.828 15.236C121.576 14.6053 122.764 14.29 124.392 14.29H127.736V13.872C127.736 12.9627 127.472 12.266 126.944 11.782C126.416 11.298 125.639 11.056 124.612 11.056C123.923 11.056 123.248 11.1733 122.588 11.408C121.928 11.628 121.371 11.9287 120.916 12.31L120.036 10.726C120.637 10.242 121.356 9.87533 122.192 9.626C123.028 9.362 123.915 9.23 124.854 9.23ZM124.37 19.504C125.177 19.504 125.873 19.328 126.46 18.976C127.047 18.6093 127.472 18.096 127.736 17.436V15.808H124.48C122.691 15.808 121.796 16.4093 121.796 17.612C121.796 18.1987 122.023 18.6607 122.478 18.998C122.933 19.3353 123.563 19.504 124.37 19.504ZM139.342 9.23C140.823 9.23 141.997 9.66267 142.862 10.528C143.742 11.3787 144.182 12.6327 144.182 14.29V21H142.07V14.532C142.07 13.4027 141.799 12.552 141.256 11.98C140.713 11.408 139.936 11.122 138.924 11.122C137.78 11.122 136.878 11.4593 136.218 12.134C135.558 12.794 135.228 13.7473 135.228 14.994V21H133.116V9.34H135.14V11.1C135.565 10.4987 136.137 10.0367 136.856 9.714C137.589 9.39133 138.418 9.23 139.342 9.23ZM151.697 9.23C153.31 9.23 154.542 9.626 155.393 10.418C156.258 11.21 156.691 12.3907 156.691 13.96V21H154.689V19.46C154.337 20.0027 153.831 20.4207 153.171 20.714C152.525 20.9927 151.755 21.132 150.861 21.132C149.555 21.132 148.507 20.8167 147.715 20.186C146.937 19.5553 146.549 18.7267 146.549 17.7C146.549 16.6733 146.923 15.852 147.671 15.236C148.419 14.6053 149.607 14.29 151.235 14.29H154.579V13.872C154.579 12.9627 154.315 12.266 153.787 11.782C153.259 11.298 152.481 11.056 151.455 11.056C150.765 11.056 150.091 11.1733 149.431 11.408C148.771 11.628 148.213 11.9287 147.759 12.31L146.879 10.726C147.48 10.242 148.199 9.87533 149.035 9.626C149.871 9.362 150.758 9.23 151.697 9.23ZM151.213 19.504C152.019 19.504 152.716 19.328 153.303 18.976C153.889 18.6093 154.315 18.096 154.579 17.436V15.808H151.323C149.533 15.808 148.639 16.4093 148.639 17.612C148.639 18.1987 148.866 18.6607 149.321 18.998C149.775 19.3353 150.406 19.504 151.213 19.504ZM171.177 9.34V19.416C171.177 21.4547 170.671 22.958 169.659 23.926C168.647 24.9087 167.137 25.4 165.127 25.4C164.027 25.4 162.979 25.246 161.981 24.938C160.984 24.6447 160.177 24.2193 159.561 23.662L160.573 22.034C161.116 22.5033 161.783 22.87 162.575 23.134C163.382 23.4127 164.211 23.552 165.061 23.552C166.425 23.552 167.43 23.2293 168.075 22.584C168.735 21.9387 169.065 20.956 169.065 19.636V18.712C168.567 19.3133 167.951 19.768 167.217 20.076C166.499 20.3693 165.714 20.516 164.863 20.516C163.749 20.516 162.737 20.2813 161.827 19.812C160.933 19.328 160.229 18.6607 159.715 17.81C159.202 16.9447 158.945 15.962 158.945 14.862C158.945 13.762 159.202 12.7867 159.715 11.936C160.229 11.0707 160.933 10.4033 161.827 9.934C162.737 9.46467 163.749 9.23 164.863 9.23C165.743 9.23 166.557 9.39133 167.305 9.714C168.068 10.0367 168.691 10.5133 169.175 11.144V9.34H171.177ZM165.105 18.668C165.868 18.668 166.55 18.5067 167.151 18.184C167.767 17.8613 168.244 17.414 168.581 16.842C168.933 16.2553 169.109 15.5953 169.109 14.862C169.109 13.7327 168.735 12.8233 167.987 12.134C167.239 11.43 166.279 11.078 165.105 11.078C163.917 11.078 162.949 11.43 162.201 12.134C161.453 12.8233 161.079 13.7327 161.079 14.862C161.079 15.5953 161.248 16.2553 161.585 16.842C161.937 17.414 162.414 17.8613 163.015 18.184C163.631 18.5067 164.328 18.668 165.105 18.668ZM185.11 15.236C185.11 15.3973 185.096 15.61 185.066 15.874H175.606C175.738 16.9007 176.186 17.7293 176.948 18.36C177.726 18.976 178.686 19.284 179.83 19.284C181.224 19.284 182.346 18.8147 183.196 17.876L184.362 19.24C183.834 19.856 183.174 20.3253 182.382 20.648C181.605 20.9707 180.732 21.132 179.764 21.132C178.532 21.132 177.44 20.8827 176.486 20.384C175.533 19.8707 174.792 19.1593 174.264 18.25C173.751 17.3407 173.494 16.314 173.494 15.17C173.494 14.0407 173.744 13.0213 174.242 12.112C174.756 11.2027 175.452 10.4987 176.332 10C177.227 9.48667 178.232 9.23 179.346 9.23C180.461 9.23 181.451 9.48667 182.316 10C183.196 10.4987 183.878 11.2027 184.362 12.112C184.861 13.0213 185.11 14.0627 185.11 15.236ZM179.346 11.012C178.334 11.012 177.484 11.32 176.794 11.936C176.12 12.552 175.724 13.3587 175.606 14.356H183.086C182.969 13.3733 182.566 12.574 181.876 11.958C181.202 11.3273 180.358 11.012 179.346 11.012ZM189.427 11.298C189.794 10.6233 190.336 10.11 191.055 9.758C191.774 9.406 192.646 9.23 193.673 9.23V11.276C193.556 11.2613 193.394 11.254 193.189 11.254C192.045 11.254 191.143 11.5987 190.483 12.288C189.838 12.9627 189.515 13.9307 189.515 15.192V21H187.403V9.34H189.427V11.298Z" fill="white"/>
<path fill-rule="evenodd" clip-rule="evenodd" d="M2.41626 9.91729L2.03915 10.1475C1.82014 9.96737 1.56936 9.82803 1.30306 9.73849L1.29935 9.29668C1.29889 9.13343 1.179 8.99917 1.01923 8.97496C0.888425 8.95606 0.75664 8.94583 0.624991 8.94433C0.270962 7.41894 0.0745782 6.04556 0 4.96418C0.531464 4.60054 1.07906 4.27554 1.63949 3.98623C1.61411 4.12438 1.67891 4.26439 1.80247 4.33305L2.18561 4.54594C2.13734 4.82971 2.1413 5.11791 2.19708 5.39491L1.81996 5.62512C1.68241 5.7086 1.6228 5.88151 1.68 6.03015C1.79745 6.33835 1.96598 6.62573 2.18253 6.88137C2.28747 7.00426 2.46481 7.03514 2.60367 6.94931L2.98078 6.71911C3.19979 6.89923 3.44825 7.03728 3.71687 7.12811L3.72057 7.56992C3.72104 7.73317 3.84092 7.86744 4.0007 7.89164C4.32983 7.93921 4.66518 7.93181 4.98892 7.86876C5.14767 7.84011 5.26069 7.69687 5.25892 7.53598L5.25522 7.09417C5.51989 6.99522 5.7667 6.84637 5.98216 6.6555L6.3653 6.86839C6.50462 6.94581 6.68282 6.90951 6.78438 6.78143C6.99634 6.51481 7.15853 6.21746 7.26876 5.90969C7.32388 5.7558 7.25927 5.58767 7.11995 5.51026L6.73681 5.29737C6.78509 5.0136 6.78112 4.7254 6.72535 4.4484L7.10246 4.21819C7.24001 4.13471 7.29962 3.9618 7.24242 3.81316C7.12497 3.50495 6.95644 3.21758 6.73989 2.96194C6.63495 2.83905 6.45761 2.80817 6.31876 2.894L5.94164 3.1242C5.72264 2.94408 5.47185 2.80474 5.20555 2.7152L5.20488 2.63532C11.9479 0.881242 19.4573 2.88964 23 4.46418C22.2 16.0642 15 22.6308 11.5 24.4642C6.81383 22.2327 3.88091 17.9263 2.14563 13.7154L2.46281 13.8917C2.60213 13.9691 2.78032 13.9328 2.88188 13.8047C3.09385 13.5381 3.25603 13.2408 3.36627 12.933C3.42138 12.7791 3.35678 12.611 3.21745 12.5335L2.83431 12.3207C2.88259 12.0369 2.87862 11.7487 2.82285 11.4717L3.19996 11.2415C3.33751 11.158 3.39713 10.9851 3.33993 10.8364C3.22247 10.5282 3.05395 10.2409 2.83739 9.98523C2.73245 9.86234 2.55512 9.83146 2.41626 9.91729ZM1.51682 12.0493C1.53441 11.9312 1.53507 11.8026 1.51526 11.6646C1.44768 11.5058 1.36085 11.3765 1.26155 11.2745C1.34232 11.5309 1.42736 11.7894 1.51682 12.0493ZM5.63874 8.70649L6.20193 9.53605C5.83719 9.97917 5.55648 10.4844 5.37286 11.0281L4.37099 10.9881C4.05943 10.9964 3.80828 11.2351 3.75885 11.5428C3.64955 12.2263 3.75445 12.9672 3.87733 13.6321C3.93297 13.9367 4.20379 14.1548 4.51172 14.1476L5.40678 14.1283C5.59944 14.6566 5.89033 15.1504 6.2677 15.5815L5.82902 16.371C5.67626 16.6459 5.74438 16.9882 5.9853 17.1836C6.52128 17.6136 7.1253 17.9431 7.75136 18.1618C8.04219 18.2619 8.36316 18.1328 8.51331 17.8625L8.9533 17.0707C9.51738 17.1658 10.0916 17.1496 10.642 17.0342L11.0984 17.8044C11.2572 18.071 11.5831 18.1844 11.8711 18.0708C12.5006 17.824 13.1875 17.523 13.7101 17.0692C13.9477 16.866 14.0038 16.5189 13.845 16.2523L13.2924 15.4255C13.6571 14.9824 13.9378 14.4772 14.1201 13.9358L15.1127 13.9707C15.4243 13.9624 15.687 13.7301 15.7365 13.4224C15.8445 12.7413 15.7372 11.999 15.6144 11.3342C15.5587 11.0296 15.2879 10.8114 14.98 10.8187L14.0862 10.8356C13.8936 10.3073 13.6027 9.81352 13.2253 9.38242L13.664 8.59292C13.8167 8.318 13.7486 7.97571 13.5077 7.78034C12.973 7.34793 12.3713 7.01975 11.7453 6.80104C11.4544 6.70094 11.1311 6.82882 10.9797 7.10139L10.541 7.89089C9.97692 7.7958 9.40271 7.81193 8.85231 7.92741L8.39594 7.15719C8.23713 6.89059 7.91119 6.77713 7.62316 6.89078C6.99369 7.1376 6.29749 7.43345 5.77486 7.88724C5.53836 8.0941 5.47994 8.43989 5.63874 8.70649ZM9.20815 10.5576C6.82817 11.603 7.72161 14.8026 10.2825 14.405C12.6625 13.3596 11.7691 10.1601 9.20815 10.5576ZM5.41645 4.64366C4.90892 3.4514 3.31637 3.9165 3.50104 5.20306C4.00856 6.39532 5.60111 5.93021 5.41645 4.64366Z" fill="#FFCB2C"/>
</svg>
